<svg width="30" height="30" viewBox="0 0 30 30" fill="none" xmlns="http://www.w3.org/2000/svg">
<g clip-path="url(#clip0)">
<path d="M10.6874 11.0194H12.0624V20.9685H10.6874V11.0194Z" fill="url(#paint0_linear)"/>
<path d="M8.84326 6.47641V7.86588C8.84326 8.62459 9.45832 9.23965 10.217 9.23965C10.9757 9.23965 11.5908 9.8547 11.5908 10.6134V19.5947C11.5908 20.3534 12.2059 20.9685 12.9646 20.9685H28.0286C28.7873 20.9685 29.4024 20.3534 29.4024 19.5947V6.47641C29.4024 5.7177 28.7873 5.10265 28.0286 5.10265H10.217C9.45832 5.10265 8.84326 5.7177 8.84326 6.47641Z" fill="url(#paint1_linear)"/>
<path d="M14.8273 11.8233H13.5482C13.2515 11.8233 13.011 11.5829 13.011 11.2862V11.2034C13.011 10.9068 13.2515 10.6662 13.5482 10.6662H14.8273C15.124 10.6662 15.3645 10.9067 15.3645 11.2034V11.2862C15.3645 11.5828 15.124 11.8233 14.8273 11.8233Z" fill="url(#paint2_linear)"/>
<path d="M14.8273 10.1983H13.5482C13.2515 10.1983 13.011 9.95781 13.011 9.66111V9.57834C13.011 9.2817 13.2515 9.04117 13.5482 9.04117H14.8273C15.124 9.04117 15.3645 9.28164 15.3645 9.57834V9.66111C15.3645 9.95781 15.124 10.1983 14.8273 10.1983Z" fill="url(#paint3_linear)"/>
<path d="M14.8273 8.57328H13.5482C13.2515 8.57328 13.011 8.33281 13.011 8.03611V7.95334C13.011 7.6567 13.2515 7.41617 13.5482 7.41617H14.8273C15.124 7.41617 15.3645 7.65664 15.3645 7.95334V8.03611C15.3645 8.33281 15.124 8.57328 14.8273 8.57328Z" fill="url(#paint4_linear)"/>
<path d="M9.19324 8.78159C9.44477 9.06264 9.81018 9.2397 10.2171 9.2397C10.9758 9.2397 11.5908 9.85476 11.5908 10.6135V19.5947C11.5908 20.3534 12.2059 20.9685 12.9646 20.9685H28.0287C28.7874 20.9685 29.4024 20.3534 29.4024 19.5947V8.78159H9.19324Z" fill="url(#paint5_linear)"/>
<path d="M11.5908 13.0355V19.5947C11.5908 20.3534 12.2059 20.9685 12.9646 20.9685H28.0286C28.7874 20.9685 29.4024 20.3534 29.4024 19.5947V13.0355H11.5908Z" fill="url(#paint6_linear)"/>
<path d="M11.5908 17.002V19.5947C11.5908 20.3534 12.2059 20.9685 12.9646 20.9685H28.0286C28.7874 20.9685 29.4024 20.3534 29.4024 19.5947V17.002H11.5908Z" fill="url(#paint7_linear)"/>
<path d="M8.70825 9.97295H6.58325V9.0306C6.58325 8.76331 6.79996 8.5466 7.06725 8.5466H8.22431C8.4916 8.5466 8.70831 8.76331 8.70831 9.0306V9.97295H8.70825Z" fill="url(#paint8_linear)"/>
<path d="M5.54749 10.2672L3.83943 14.1203C3.62766 14.598 3.15431 14.906 2.63178 14.906C1.50043 14.906 0.583252 15.8231 0.583252 16.9545V19.6475C0.583252 20.377 1.17466 20.9685 1.90425 20.9685H9.88731C10.6168 20.9685 11.2083 20.3771 11.2083 19.6475V10.8026C11.2083 10.0731 10.6169 9.4816 9.88731 9.4816H6.75519C6.23261 9.4816 5.75919 9.7896 5.54749 10.2672Z" fill="url(#paint9_linear)"/>
<path d="M9.83672 14.8805H5.37478C4.86548 14.8805 4.5246 14.3565 4.73101 13.8909L6.20584 10.564C6.31872 10.3093 6.57107 10.1452 6.8496 10.1452H9.83672C10.2257 10.1452 10.5409 10.4605 10.5409 10.8493V14.1762C10.541 14.5652 10.2257 14.8805 9.83672 14.8805Z" fill="url(#paint10_linear)"/>
<path d="M3.80088 14.2009L3.80017 14.2015L3.80088 14.2009Z" fill="url(#paint11_linear)"/>
<path d="M2.09749 16.6027C2.37061 16.6027 2.62119 16.4511 2.74796 16.2092L3.79449 14.212C3.56543 14.637 3.12019 14.906 2.63196 14.906C1.62061 14.906 0.781018 15.6391 0.614136 16.6027H2.09749Z" fill="url(#paint12_linear)"/>
<path d="M1.71873 19.2694H0.510376V17.2642C0.510376 17.1347 0.615317 17.0298 0.744729 17.0298H1.14055C1.45985 17.0298 1.71867 17.2886 1.71867 17.6079V19.2694H1.71873Z" fill="url(#paint13_linear)"/>
<path d="M27.4857 19.2694H28.6941V17.9222C28.6941 17.8148 28.607 17.7277 28.4996 17.7277H27.9654C27.7005 17.7277 27.4857 17.9425 27.4857 18.2073V19.2694Z" fill="url(#paint14_linear)"/>
<path d="M28.4232 19.2694H29.6316V17.0567C29.6316 16.9211 29.5216 16.8111 29.386 16.8111H29.029C28.6945 16.8111 28.4233 17.0823 28.4233 17.4168V19.2694H28.4232Z" fill="url(#paint15_linear)"/>
<path d="M29.0848 21.1235H0.915177C0.409765 21.1235 0 20.7138 0 20.2084V19.7084C0 19.2029 0.409765 18.7932 0.915177 18.7932H29.0848C29.5902 18.7932 29.9999 19.2029 29.9999 19.7084V20.2084C30 20.7138 29.5902 21.1235 29.0848 21.1235Z" fill="url(#paint16_linear)"/>
<path d="M10.2643 21.8765H3.57626C2.95179 21.8765 2.49891 21.2802 2.66785 20.679C3.18985 18.8216 4.89602 17.4598 6.92026 17.4598C8.9445 17.4598 10.6507 18.8216 11.1727 20.679C11.3416 21.2802 10.8887 21.8765 10.2643 21.8765Z" fill="url(#paint17_linear)"/>
<path d="M6.92024 24.8973C8.58859 24.8973 9.94106 23.5449 9.94106 21.8765C9.94106 20.2082 8.58859 18.8557 6.92024 18.8557C5.25188 18.8557 3.89941 20.2082 3.89941 21.8765C3.89941 23.5449 5.25188 24.8973 6.92024 24.8973Z" fill="url(#paint18_linear)"/>
<path d="M6.92027 24.0327C8.11113 24.0327 9.07651 23.0674 9.07651 21.8765C9.07651 20.6857 8.11113 19.7203 6.92027 19.7203C5.72942 19.7203 4.76404 20.6857 4.76404 21.8765C4.76404 23.0674 5.72942 24.0327 6.92027 24.0327Z" fill="url(#paint19_linear)"/>
<path d="M9.84344 22.6403L8.04114 20.838C7.76203 20.5369 7.36326 20.3482 6.92026 20.3482C6.0762 20.3482 5.39197 21.0324 5.39197 21.8765C5.39197 22.3195 5.58061 22.7183 5.88179 22.9974L7.68409 24.7997C8.73856 24.5249 9.56867 23.6948 9.84344 22.6403Z" fill="url(#paint20_linear)"/>
<path d="M6.92026 23.4048C7.76431 23.4048 8.44856 22.7206 8.44856 21.8765C8.44856 21.0324 7.76431 20.3482 6.92026 20.3482C6.07621 20.3482 5.39197 21.0324 5.39197 21.8765C5.39197 22.7206 6.07621 23.4048 6.92026 23.4048Z" fill="url(#paint21_linear)"/>
<path d="M26.1393 21.8765H19.4513C18.8268 21.8765 18.3739 21.2802 18.5428 20.679C19.0648 18.8216 20.771 17.4598 22.7953 17.4598C24.8195 17.4598 26.5257 18.8216 27.0477 20.679C27.2166 21.2802 26.7637 21.8765 26.1393 21.8765Z" fill="url(#paint22_linear)"/>
<path d="M22.7952 24.8973C24.4636 24.8973 25.8161 23.5449 25.8161 21.8765C25.8161 20.2082 24.4636 18.8557 22.7952 18.8557C21.1269 18.8557 19.7744 20.2082 19.7744 21.8765C19.7744 23.5449 21.1269 24.8973 22.7952 24.8973Z" fill="url(#paint23_linear)"/>
<path d="M22.7951 24.0327C23.986 24.0327 24.9514 23.0674 24.9514 21.8765C24.9514 20.6857 23.986 19.7203 22.7951 19.7203C21.6043 19.7203 20.6389 20.6857 20.6389 21.8765C20.6389 23.0674 21.6043 24.0327 22.7951 24.0327Z" fill="url(#paint24_linear)"/>
<path d="M25.7184 22.6403L23.9161 20.838C23.637 20.5369 23.2383 20.3482 22.7953 20.3482C21.9512 20.3482 21.267 21.0324 21.267 21.8765C21.267 22.3195 21.4556 22.7183 21.7568 22.9974L23.5591 24.7997C24.6136 24.5249 25.4437 23.6948 25.7184 22.6403Z" fill="url(#paint25_linear)"/>
<path d="M22.7953 23.4048C23.6393 23.4048 24.3236 22.7206 24.3236 21.8765C24.3236 21.0324 23.6393 20.3482 22.7953 20.3482C21.9512 20.3482 21.267 21.0324 21.267 21.8765C21.267 22.7206 21.9512 23.4048 22.7953 23.4048Z" fill="url(#paint26_linear)"/>
<path d="M5.09815 12.7079C5.0405 12.5923 4.9215 12.5129 4.78362 12.5129C4.6995 12.5129 4.61797 12.5233 4.53932 12.5415L3.83944 14.1203C3.81044 14.1857 3.77609 14.2476 3.73779 14.3063C3.79891 14.5259 3.92703 14.7175 4.09909 14.8575L10.1771 20.9355C10.767 20.8033 11.2082 20.2773 11.2082 19.6475V18.818L5.09815 12.7079Z" fill="url(#paint27_linear)"/>
<path d="M4.78358 15.1009C4.18399 15.1009 3.69788 14.6148 3.69788 14.0152V13.5985C3.69788 12.9989 4.18393 12.5128 4.78358 12.5128C4.97782 12.5128 5.13523 12.6703 5.13523 12.8645V14.7492C5.13529 14.9434 4.97782 15.1009 4.78358 15.1009Z" fill="url(#paint28_linear)"/>
<path d="M10.0039 16.5644H8.72468C8.42803 16.5644 8.1875 16.3239 8.1875 16.0272V15.9445C8.1875 15.6478 8.42797 15.4073 8.72468 15.4073H10.0039C10.3005 15.4073 10.541 15.6478 10.541 15.9445V16.0272C10.541 16.3239 10.3005 16.5644 10.0039 16.5644Z" fill="url(#paint29_linear)"/>
<path d="M11.2083 16.7619L10.2543 15.8079C10.1982 15.7281 10.1058 15.6756 10.0008 15.6756H8.72759C8.55624 15.6756 8.41736 15.8145 8.41736 15.9859C8.41736 16.0908 8.46983 16.1832 8.54959 16.2393L11.2083 18.898V16.7619Z" fill="url(#paint30_linear)"/>
<path d="M10.0008 15.6756H8.72759C8.55624 15.6756 8.41736 15.8145 8.41736 15.9859C8.41736 16.1572 8.55624 16.2961 8.72759 16.2961H10.0008C10.1722 16.2961 10.3111 16.1572 10.3111 15.9859C10.3111 15.8145 10.1721 15.6756 10.0008 15.6756Z" fill="url(#paint31_linear)"/>
<path d="M11.5908 13.0355H29.4024V15.4073H11.5908V13.0355Z" fill="url(#paint32_linear)"/>
<path d="M26.1575 5.94664H24.7734C24.5603 5.94664 24.4191 6.08782 24.4191 6.30088V7.77323H22.9468C22.7337 7.77323 22.5925 7.9144 22.5925 8.12746V9.51158C22.5925 9.65752 22.6421 9.78446 22.7616 9.84999L29.4025 16.4383V8.97435L26.4959 6.1157C26.4304 5.99617 26.3034 5.94664 26.1575 5.94664Z" fill="url(#paint33_linear)"/>
<path d="M27.9826 9.89735H26.5417V11.3382C26.5417 11.5513 26.369 11.724 26.156 11.724H24.7719C24.5588 11.724 24.3861 11.5513 24.3861 11.3382V9.89735H22.9452C22.7322 9.89735 22.5594 9.72464 22.5594 9.51158V8.12747C22.5594 7.91441 22.7322 7.7417 22.9452 7.7417H24.3861V6.30082C24.3861 6.08776 24.5588 5.91505 24.7719 5.91505H26.156C26.369 5.91505 26.5417 6.08776 26.5417 6.30082V7.7417H27.9826C28.1957 7.7417 28.3684 7.91441 28.3684 8.12747V9.51158C28.3683 9.72464 28.1956 9.89735 27.9826 9.89735Z" fill="url(#paint34_linear)"/>
<path d="M26.156 11.724H25.464V5.91522H26.156C26.3691 5.91522 26.5418 6.08793 26.5418 6.30099V11.3383C26.5418 11.5513 26.369 11.724 26.156 11.724Z" fill="url(#paint35_linear)"/>
<path d="M28.3684 8.12746V8.81952H22.5596V8.12746C22.5596 7.91441 22.7323 7.7417 22.9453 7.7417H27.9827C28.1957 7.7417 28.3684 7.91441 28.3684 8.12746Z" fill="url(#paint36_linear)"/>
</g>
<defs>
<linearGradient id="paint0_linear" x1="11.3748" y1="11.1847" x2="11.3748" y2="20.2848" gradientUnits="userSpaceOnUse">
<stop stop-color="#CBD0E4"/>
<stop offset="1" stop-color="#6A7D83"/>
</linearGradient>
<linearGradient id="paint1_linear" x1="16.7401" y1="5.63818" x2="20.8027" y2="13.6382" gradientUnits="userSpaceOnUse">
<stop stop-color="#EDF5FF"/>
<stop offset="1" stop-color="#D5E8FE"/>
</linearGradient>
<linearGradient id="paint2_linear" x1="14.1878" y1="11.7765" x2="14.1878" y2="10.9326" gradientUnits="userSpaceOnUse">
<stop stop-color="#EDF5FF"/>
<stop offset="1" stop-color="#D5E8FE"/>
</linearGradient>
<linearGradient id="paint3_linear" x1="14.1878" y1="10.1515" x2="14.1878" y2="9.30752" gradientUnits="userSpaceOnUse">
<stop stop-color="#EDF5FF"/>
<stop offset="1" stop-color="#D5E8FE"/>
</linearGradient>
<linearGradient id="paint4_linear" x1="14.1878" y1="8.5264" x2="14.1878" y2="7.68252" gradientUnits="userSpaceOnUse">
<stop stop-color="#EDF5FF"/>
<stop offset="1" stop-color="#D5E8FE"/>
</linearGradient>
<linearGradient id="paint5_linear" x1="19.6378" y1="13.0662" x2="26.7625" y2="-12.4325" gradientUnits="userSpaceOnUse">
<stop stop-color="#07485E" stop-opacity="0"/>
<stop offset="0.2708" stop-color="#074459" stop-opacity="0.271"/>
<stop offset="0.597" stop-color="#05394A" stop-opacity="0.597"/>
<stop offset="0.9505" stop-color="#032632" stop-opacity="0.951"/>
<stop offset="1" stop-color="#03232E"/>
</linearGradient>
<linearGradient id="paint6_linear" x1="20.6578" y1="15.8329" x2="25.9819" y2="-3.22183" gradientUnits="userSpaceOnUse">
<stop stop-color="#07485E" stop-opacity="0"/>
<stop offset="0.2708" stop-color="#074459" stop-opacity="0.271"/>
<stop offset="0.597" stop-color="#05394A" stop-opacity="0.597"/>
<stop offset="0.9505" stop-color="#032632" stop-opacity="0.951"/>
<stop offset="1" stop-color="#03232E"/>
</linearGradient>
<linearGradient id="paint7_linear" x1="20.5721" y1="18.1228" x2="24.2174" y2="5.07662" gradientUnits="userSpaceOnUse">
<stop stop-color="#07485E" stop-opacity="0"/>
<stop offset="0.2708" stop-color="#074459" stop-opacity="0.271"/>
<stop offset="0.597" stop-color="#05394A" stop-opacity="0.597"/>
<stop offset="0.9505" stop-color="#032632" stop-opacity="0.951"/>
<stop offset="1" stop-color="#03232E"/>
</linearGradient>
<linearGradient id="paint8_linear" x1="7.64572" y1="8.78542" x2="7.64572" y2="9.5146" gradientUnits="userSpaceOnUse">
<stop stop-color="#FF637B"/>
<stop offset="1" stop-color="#E63950"/>
</linearGradient>
<linearGradient id="paint9_linear" x1="3.53249" y1="12.8618" x2="10.5961" y2="19.9254" gradientUnits="userSpaceOnUse">
<stop stop-color="#EDF5FF"/>
<stop offset="1" stop-color="#D5E8FE"/>
</linearGradient>
<linearGradient id="paint10_linear" x1="8.16725" y1="12.1666" x2="10.7224" y2="3.022" gradientUnits="userSpaceOnUse">
<stop stop-color="#9AE1D3"/>
<stop offset="1" stop-color="#80D1C1"/>
</linearGradient>
<linearGradient id="paint11_linear" x1="3.80052" y1="14.2011" x2="3.80066" y2="14.1999" gradientUnits="userSpaceOnUse">
<stop stop-color="#9AE1D3"/>
<stop offset="1" stop-color="#80D1C1"/>
</linearGradient>
<linearGradient id="paint12_linear" x1="2.16308" y1="15.3317" x2="3.86625" y2="18.4567" gradientUnits="userSpaceOnUse">
<stop stop-color="#07485E" stop-opacity="0"/>
<stop offset="0.2708" stop-color="#074459" stop-opacity="0.271"/>
<stop offset="0.597" stop-color="#05394A" stop-opacity="0.597"/>
<stop offset="0.9505" stop-color="#032632" stop-opacity="0.951"/>
<stop offset="1" stop-color="#03232E"/>
</linearGradient>
<linearGradient id="paint13_linear" x1="0.430905" y1="17.6353" x2="1.26143" y2="18.4658" gradientUnits="userSpaceOnUse">
<stop stop-color="#FFDA2D"/>
<stop offset="1" stop-color="#FDBF00"/>
</linearGradient>
<linearGradient id="paint14_linear" x1="27.7524" y1="18.2181" x2="28.1857" y2="18.6513" gradientUnits="userSpaceOnUse">
<stop stop-color="#FFDA2D"/>
<stop offset="1" stop-color="#FDBF00"/>
</linearGradient>
<linearGradient id="paint15_linear" x1="28.5715" y1="17.6562" x2="29.1526" y2="18.2374" gradientUnits="userSpaceOnUse">
<stop stop-color="#FF637B"/>
<stop offset="1" stop-color="#E63950"/>
</linearGradient>
<linearGradient id="paint16_linear" x1="15" y1="18.8319" x2="15" y2="20.9634" gradientUnits="userSpaceOnUse">
<stop stop-color="#8A7889"/>
<stop offset="1" stop-color="#6E566E"/>
</linearGradient>
<linearGradient id="paint17_linear" x1="4.68126" y1="18.3819" x2="8.66427" y2="22.3649" gradientUnits="userSpaceOnUse">
<stop stop-color="#CBD0E4"/>
<stop offset="1" stop-color="#6A7D83"/>
</linearGradient>
<linearGradient id="paint18_linear" x1="5.00359" y1="19.9599" x2="8.41318" y2="23.3694" gradientUnits="userSpaceOnUse">
<stop stop-color="#8A7889"/>
<stop offset="1" stop-color="#6E566E"/>
</linearGradient>
<linearGradient id="paint19_linear" x1="8.28839" y1="23.2446" x2="5.85463" y2="20.8109" gradientUnits="userSpaceOnUse">
<stop stop-color="#8A7889"/>
<stop offset="1" stop-color="#6E566E"/>
</linearGradient>
<linearGradient id="paint20_linear" x1="8.90985" y1="23.8661" x2="6.57797" y2="21.5342" gradientUnits="userSpaceOnUse">
<stop stop-color="#6E566E" stop-opacity="0"/>
<stop offset="0.2944" stop-color="#674D66" stop-opacity="0.294"/>
<stop offset="1" stop-color="#593B56"/>
</linearGradient>
<linearGradient id="paint21_linear" x1="6.45673" y1="21.413" x2="7.46885" y2="22.4251" gradientUnits="userSpaceOnUse">
<stop stop-color="#EDF5FF"/>
<stop offset="1" stop-color="#D5E8FE"/>
</linearGradient>
<linearGradient id="paint22_linear" x1="20.5563" y1="18.3819" x2="24.5393" y2="22.3649" gradientUnits="userSpaceOnUse">
<stop stop-color="#CBD0E4"/>
<stop offset="1" stop-color="#6A7D83"/>
</linearGradient>
<linearGradient id="paint23_linear" x1="20.8786" y1="19.9599" x2="24.2882" y2="23.3695" gradientUnits="userSpaceOnUse">
<stop stop-color="#8A7889"/>
<stop offset="1" stop-color="#6E566E"/>
</linearGradient>
<linearGradient id="paint24_linear" x1="24.1633" y1="23.2446" x2="21.7295" y2="20.8109" gradientUnits="userSpaceOnUse">
<stop stop-color="#8A7889"/>
<stop offset="1" stop-color="#6E566E"/>
</linearGradient>
<linearGradient id="paint25_linear" x1="24.7849" y1="23.8661" x2="22.453" y2="21.5342" gradientUnits="userSpaceOnUse">
<stop stop-color="#6E566E" stop-opacity="0"/>
<stop offset="0.2944" stop-color="#674D66" stop-opacity="0.294"/>
<stop offset="1" stop-color="#593B56"/>
</linearGradient>
<linearGradient id="paint26_linear" x1="22.3317" y1="21.413" x2="23.3439" y2="22.4251" gradientUnits="userSpaceOnUse">
<stop stop-color="#EDF5FF"/>
<stop offset="1" stop-color="#D5E8FE"/>
</linearGradient>
<linearGradient id="paint27_linear" x1="5.66832" y1="15.7652" x2="2.00167" y2="13.8694" gradientUnits="userSpaceOnUse">
<stop stop-color="#07485E" stop-opacity="0"/>
<stop offset="0.2708" stop-color="#074459" stop-opacity="0.271"/>
<stop offset="0.597" stop-color="#05394A" stop-opacity="0.597"/>
<stop offset="0.9505" stop-color="#032632" stop-opacity="0.951"/>
<stop offset="1" stop-color="#03232E"/>
</linearGradient>
<linearGradient id="paint28_linear" x1="4.07217" y1="13.2475" x2="5.17194" y2="14.3472" gradientUnits="userSpaceOnUse">
<stop stop-color="#CBD0E4"/>
<stop offset="1" stop-color="#6A7D83"/>
</linearGradient>
<linearGradient id="paint29_linear" x1="9.36426" y1="16.5176" x2="9.36426" y2="15.6736" gradientUnits="userSpaceOnUse">
<stop stop-color="#EDF5FF"/>
<stop offset="1" stop-color="#D5E8FE"/>
</linearGradient>
<linearGradient id="paint30_linear" x1="10.0369" y1="17.0112" x2="9.14107" y2="14.5736" gradientUnits="userSpaceOnUse">
<stop stop-color="#07485E" stop-opacity="0"/>
<stop offset="0.2708" stop-color="#074459" stop-opacity="0.271"/>
<stop offset="0.597" stop-color="#05394A" stop-opacity="0.597"/>
<stop offset="0.9505" stop-color="#032632" stop-opacity="0.951"/>
<stop offset="1" stop-color="#03232E"/>
</linearGradient>
<linearGradient id="paint31_linear" x1="9.36418" y1="15.7007" x2="9.36418" y2="16.1533" gradientUnits="userSpaceOnUse">
<stop stop-color="#8A7889"/>
<stop offset="1" stop-color="#6E566E"/>
</linearGradient>
<linearGradient id="paint32_linear" x1="17.3967" y1="11.1215" x2="20.9381" y2="14.6629" gradientUnits="userSpaceOnUse">
<stop stop-color="#FF637B"/>
<stop offset="1" stop-color="#E63950"/>
</linearGradient>
<linearGradient id="paint33_linear" x1="29.6535" y1="12.9923" x2="19.7725" y2="3.11123" gradientUnits="userSpaceOnUse">
<stop stop-color="#07485E" stop-opacity="0"/>
<stop offset="0.2708" stop-color="#074459" stop-opacity="0.271"/>
<stop offset="0.597" stop-color="#05394A" stop-opacity="0.597"/>
<stop offset="0.9505" stop-color="#032632" stop-opacity="0.951"/>
<stop offset="1" stop-color="#03232E"/>
</linearGradient>
<linearGradient id="paint34_linear" x1="23.8597" y1="7.21535" x2="27.5669" y2="10.9224" gradientUnits="userSpaceOnUse">
<stop stop-color="#FF637B"/>
<stop offset="1" stop-color="#E63950"/>
</linearGradient>
<linearGradient id="paint35_linear" x1="25.8489" y1="8.81881" x2="22.7072" y2="10.056" gradientUnits="userSpaceOnUse">
<stop stop-color="#E63950" stop-opacity="0"/>
<stop offset="0.0467" stop-color="#E4354B" stop-opacity="0.047"/>
<stop offset="0.4669" stop-color="#D31822" stop-opacity="0.467"/>
<stop offset="0.7991" stop-color="#C90709" stop-opacity="0.799"/>
<stop offset="1" stop-color="#C50000"/>
</linearGradient>
<linearGradient id="paint36_linear" x1="25.4567" y1="8.38329" x2="25.5957" y2="9.94017" gradientUnits="userSpaceOnUse">
<stop stop-color="#E63950" stop-opacity="0"/>
<stop offset="0.0467" stop-color="#E4354B" stop-opacity="0.047"/>
<stop offset="0.4669" stop-color="#D31822" stop-opacity="0.467"/>
<stop offset="0.7991" stop-color="#C90709" stop-opacity="0.799"/>
<stop offset="1" stop-color="#C50000"/>
</linearGradient>
<clipPath id="clip0">
<rect width="30" height="30" fill="white"/>
</clipPath>
</defs>
</svg>
