<svg width="30" height="30" viewBox="0 0 30 30" fill="none" xmlns="http://www.w3.org/2000/svg">
<g clip-path="url(#clip0)">
<path d="M5.44714 13.5263L11.9701 7.00967L8.16485 7.00784C6.66567 7.00714 5.44973 8.22184 5.44903 9.72102L5.44714 13.5263Z" fill="url(#paint0_linear)"/>
<path d="M26.8747 10.1713C26.1144 9.41104 24.8817 9.41104 24.1214 10.1713L25.6922 8.60051C26.4525 7.84022 26.4525 6.60751 25.6922 5.84722C24.932 5.08692 23.6992 5.08692 22.939 5.84722L24.8785 3.90763C25.6388 3.14733 25.6388 1.91463 24.8785 1.15433C24.1182 0.394038 22.8855 0.394038 22.1252 1.15433L19.956 3.32375C20.7162 2.56345 20.7162 1.33074 19.956 0.57045C19.1957 -0.189845 17.963 -0.189845 17.2027 0.57045L6.31789 11.4552C5.64478 12.1283 5.26666 13.0412 5.26666 13.9932C5.26666 14.945 4.88848 15.858 4.21542 16.5311L3.65778 17.0888L11.8075 25.2385L11.9429 25.1031C12.792 24.254 13.8626 23.6604 15.0326 23.3901C16.2026 23.1197 17.2732 22.5261 18.1223 21.677L26.8747 12.9246C27.635 12.1643 27.635 10.9316 26.8747 10.1713Z" fill="url(#paint1_linear)"/>
<path d="M12.5774 16.2086L9.8241 13.4554L22.1253 1.15417C22.8856 0.39388 24.1183 0.39388 24.8786 1.15417C25.6389 1.91447 25.6389 3.14717 24.8786 3.90747L12.5774 16.2086Z" fill="url(#paint2_linear)"/>
<path d="M9.82409 13.4556L7.0708 10.7023L17.2027 0.57045C17.963 -0.189845 19.1957 -0.189845 19.956 0.57045C20.7163 1.33074 20.7163 2.56345 19.956 3.32374L9.82409 13.4556Z" fill="url(#paint3_linear)"/>
<path d="M15.3307 18.9619L12.5774 16.2086L22.939 5.84702C23.6993 5.08672 24.932 5.08672 25.6923 5.84702C26.4526 6.60731 26.4526 7.84001 25.6923 8.60031L15.3307 18.9619Z" fill="url(#paint4_linear)"/>
<path d="M18.084 21.7152L15.3307 18.9619L24.1215 10.1711C24.8818 9.41085 26.1145 9.41085 26.8748 10.1711C27.6351 10.9314 27.6351 12.1641 26.8748 12.9244L18.084 21.7152Z" fill="url(#paint5_linear)"/>
<path d="M10.4339 25.7903L2.94201 18.2985C2.42607 17.7825 2.42607 16.9459 2.94201 16.43L2.99936 16.3726C3.5153 15.8567 4.35189 15.8567 4.86783 16.3726L12.3597 23.8645C12.8757 24.3805 12.8757 25.2171 12.3597 25.733L12.3024 25.7903C11.7864 26.3064 10.9498 26.3064 10.4339 25.7903Z" fill="url(#paint6_linear)"/>
<path d="M5.44714 17.3489L11.9701 10.8323L8.16485 10.8305C6.66567 10.8298 5.44973 12.0445 5.44903 13.5437L5.44714 17.3489Z" fill="url(#paint7_linear)"/>
<path d="M26.8747 13.9938C26.1144 13.2335 24.8817 13.2335 24.1214 13.9938L25.6922 12.4229C26.4525 11.6626 26.4525 10.4299 25.6922 9.66965C24.932 8.90935 23.6992 8.90935 22.939 9.66965L24.8785 7.73006C25.6388 6.96976 25.6388 5.73706 24.8785 4.97676C24.1182 4.21647 22.8855 4.21647 22.1252 4.97676L19.9559 7.14612C20.7162 6.38582 20.7162 5.15312 19.9559 4.39282C19.1956 3.63253 17.9629 3.63253 17.2026 4.39282L6.31789 15.2776C5.64478 15.9508 5.26666 16.8636 5.26666 17.8156C5.26666 18.7675 4.88848 19.6804 4.21542 20.3535L3.65778 20.9112L11.8075 29.0609L11.9429 28.9256C12.792 28.0765 13.8626 27.4829 15.0326 27.2125C16.2026 26.9422 17.2732 26.3486 18.1223 25.4995L26.8747 16.7471C27.635 15.9868 27.635 14.7541 26.8747 13.9938Z" fill="url(#paint8_linear)"/>
<path d="M12.5774 20.0313L9.8241 17.278L22.1253 4.97681C22.8856 4.21651 24.1183 4.21651 24.8786 4.97681C25.6389 5.7371 25.6389 6.96981 24.8786 7.7301L12.5774 20.0313Z" fill="url(#paint9_linear)"/>
<path d="M9.82409 17.2789L7.0708 14.5257L17.2027 4.39383C17.963 3.63353 19.1957 3.63353 19.956 4.39383C20.7163 5.15412 20.7163 6.38683 19.956 7.14712L9.82409 17.2789Z" fill="url(#paint10_linear)"/>
<path d="M15.3307 22.7846L12.5774 20.0313L22.939 9.66965C23.6993 8.90935 24.932 8.90935 25.6923 9.66965C26.4526 10.4299 26.4526 11.6626 25.6923 12.4229L15.3307 22.7846Z" fill="url(#paint11_linear)"/>
<path d="M18.084 25.5378L15.3307 22.7845L24.1215 13.9938C24.8818 13.2335 26.1145 13.2335 26.8748 13.9938C27.6351 14.7541 27.6351 15.9868 26.8748 16.7471L18.084 25.5378Z" fill="url(#paint12_linear)"/>
<path d="M10.4339 29.613L2.94201 22.1211C2.42607 21.6052 2.42607 20.7686 2.94201 20.2527L2.99936 20.1953C3.5153 19.6794 4.35189 19.6794 4.86783 20.1953L12.3597 27.6872C12.8757 28.2031 12.8757 29.0397 12.3597 29.5557L12.3024 29.613C11.7864 30.129 10.9498 30.129 10.4339 29.613Z" fill="url(#paint13_linear)"/>
</g>
<defs>
<linearGradient id="paint0_linear" x1="4.19432" y1="9.31961" x2="10.8322" y2="10.7141" gradientUnits="userSpaceOnUse">
<stop stop-color="#69B7A8"/>
<stop offset="1" stop-color="#0B799D"/>
</linearGradient>
<linearGradient id="paint1_linear" x1="15.5514" y1="5.32298" x2="15.5513" y2="21.864" gradientUnits="userSpaceOnUse">
<stop stop-color="#69B7A8"/>
<stop offset="1" stop-color="#0B799D"/>
</linearGradient>
<linearGradient id="paint2_linear" x1="17.7062" y1="8.05931" x2="22.9908" y2="11.0565" gradientUnits="userSpaceOnUse">
<stop stop-color="#0B799D" stop-opacity="0"/>
<stop offset="0.1739" stop-color="#117D9E" stop-opacity="0.174"/>
<stop offset="0.414" stop-color="#2389A0" stop-opacity="0.414"/>
<stop offset="0.6928" stop-color="#409CA3" stop-opacity="0.693"/>
<stop offset="0.9986" stop-color="#69B7A8" stop-opacity="0.999"/>
<stop offset="1" stop-color="#69B7A8"/>
</linearGradient>
<linearGradient id="paint3_linear" x1="14.7038" y1="6.86416" x2="18.873" y2="9.61501" gradientUnits="userSpaceOnUse">
<stop stop-color="#0B799D" stop-opacity="0"/>
<stop offset="0.1739" stop-color="#117D9E" stop-opacity="0.174"/>
<stop offset="0.414" stop-color="#2389A0" stop-opacity="0.414"/>
<stop offset="0.6928" stop-color="#409CA3" stop-opacity="0.693"/>
<stop offset="0.9986" stop-color="#69B7A8" stop-opacity="0.999"/>
<stop offset="1" stop-color="#69B7A8"/>
</linearGradient>
<linearGradient id="paint4_linear" x1="19.9652" y1="11.9987" x2="24.5398" y2="15.2325" gradientUnits="userSpaceOnUse">
<stop stop-color="#0B799D" stop-opacity="0"/>
<stop offset="0.1739" stop-color="#117D9E" stop-opacity="0.174"/>
<stop offset="0.414" stop-color="#2389A0" stop-opacity="0.414"/>
<stop offset="0.6928" stop-color="#409CA3" stop-opacity="0.693"/>
<stop offset="0.9986" stop-color="#69B7A8" stop-opacity="0.999"/>
<stop offset="1" stop-color="#69B7A8"/>
</linearGradient>
<linearGradient id="paint5_linear" x1="22.1261" y1="15.6989" x2="26.5431" y2="18.2228" gradientUnits="userSpaceOnUse">
<stop stop-color="#0B799D" stop-opacity="0"/>
<stop offset="0.1739" stop-color="#117D9E" stop-opacity="0.174"/>
<stop offset="0.414" stop-color="#2389A0" stop-opacity="0.414"/>
<stop offset="0.6928" stop-color="#409CA3" stop-opacity="0.693"/>
<stop offset="0.9986" stop-color="#69B7A8" stop-opacity="0.999"/>
<stop offset="1" stop-color="#69B7A8"/>
</linearGradient>
<linearGradient id="paint6_linear" x1="8.2653" y1="20.4671" x2="6.88848" y2="21.8439" gradientUnits="userSpaceOnUse">
<stop stop-color="#69B7A8"/>
<stop offset="1" stop-color="#0B799D"/>
</linearGradient>
<linearGradient id="paint7_linear" x1="6.70556" y1="14.0899" x2="9.19327" y2="13.7302" gradientUnits="userSpaceOnUse">
<stop stop-color="#9AE1D3"/>
<stop offset="1" stop-color="#80D1C1"/>
</linearGradient>
<linearGradient id="paint8_linear" x1="15.5513" y1="9.14485" x2="15.5514" y2="25.6859" gradientUnits="userSpaceOnUse">
<stop stop-color="#9AE1D3"/>
<stop offset="1" stop-color="#80D1C1"/>
</linearGradient>
<linearGradient id="paint9_linear" x1="17.7062" y1="11.8814" x2="22.9907" y2="14.8786" gradientUnits="userSpaceOnUse">
<stop stop-color="#0B799D" stop-opacity="0"/>
<stop offset="0.1739" stop-color="#117D9E" stop-opacity="0.174"/>
<stop offset="0.414" stop-color="#2389A0" stop-opacity="0.414"/>
<stop offset="0.6928" stop-color="#409CA3" stop-opacity="0.693"/>
<stop offset="0.9986" stop-color="#69B7A8" stop-opacity="0.999"/>
<stop offset="1" stop-color="#69B7A8"/>
</linearGradient>
<linearGradient id="paint10_linear" x1="14.7038" y1="10.687" x2="18.873" y2="13.4378" gradientUnits="userSpaceOnUse">
<stop stop-color="#0B799D" stop-opacity="0"/>
<stop offset="0.1739" stop-color="#117D9E" stop-opacity="0.174"/>
<stop offset="0.414" stop-color="#2389A0" stop-opacity="0.414"/>
<stop offset="0.6928" stop-color="#409CA3" stop-opacity="0.693"/>
<stop offset="0.9986" stop-color="#69B7A8" stop-opacity="0.999"/>
<stop offset="1" stop-color="#69B7A8"/>
</linearGradient>
<linearGradient id="paint11_linear" x1="19.9652" y1="15.8207" x2="24.5398" y2="19.0546" gradientUnits="userSpaceOnUse">
<stop stop-color="#0B799D" stop-opacity="0"/>
<stop offset="0.1739" stop-color="#117D9E" stop-opacity="0.174"/>
<stop offset="0.414" stop-color="#2389A0" stop-opacity="0.414"/>
<stop offset="0.6928" stop-color="#409CA3" stop-opacity="0.693"/>
<stop offset="0.9986" stop-color="#69B7A8" stop-opacity="0.999"/>
<stop offset="1" stop-color="#69B7A8"/>
</linearGradient>
<linearGradient id="paint12_linear" x1="22.1261" y1="19.5209" x2="26.543" y2="22.0449" gradientUnits="userSpaceOnUse">
<stop stop-color="#0B799D" stop-opacity="0"/>
<stop offset="0.1739" stop-color="#117D9E" stop-opacity="0.174"/>
<stop offset="0.414" stop-color="#2389A0" stop-opacity="0.414"/>
<stop offset="0.6928" stop-color="#409CA3" stop-opacity="0.693"/>
<stop offset="0.9986" stop-color="#69B7A8" stop-opacity="0.999"/>
<stop offset="1" stop-color="#69B7A8"/>
</linearGradient>
<linearGradient id="paint13_linear" x1="8.2653" y1="24.2898" x2="6.88848" y2="25.6666" gradientUnits="userSpaceOnUse">
<stop stop-color="#9AE1D3"/>
<stop offset="1" stop-color="#80D1C1"/>
</linearGradient>
<clipPath id="clip0">
<rect width="30" height="30" fill="white"/>
</clipPath>
</defs>
</svg>
